<?xml version="1.0" standalone="no"?>
<!DOCTYPE svg PUBLIC "-//W3C//DTD SVG 20010904//EN"
 "http://www.w3.org/TR/2001/REC-SVG-20010904/DTD/svg10.dtd">
<svg version="1.0" xmlns="http://www.w3.org/2000/svg"
 width="1280.000000pt" height="908.000000pt" viewBox="0 0 1280.000000 908.000000"
 preserveAspectRatio="xMidYMid meet">
<metadata>
Created by potrace 1.15, written by Peter Selinger 2001-2017
</metadata>
<g transform="translate(0.000000,908.000000) scale(0.100000,-0.100000)"
fill="#000000" stroke="none">
<path d="M7091 9019 c-119 -74 -124 -79 -80 -79 49 0 181 -35 247 -65 131 -60
302 -195 387 -305 115 -150 169 -301 168 -470 -2 -272 -129 -535 -366 -756
-156 -144 -233 -182 -394 -191 -181 -11 -301 33 -423 156 -162 164 -235 359
-235 626 0 158 16 249 70 412 81 244 196 400 375 512 l85 53 -47 -6 c-132 -16
-345 -137 -441 -249 -110 -131 -193 -310 -245 -532 -22 -95 -26 -132 -26 -275
1 -146 4 -176 27 -264 31 -116 90 -243 147 -315 l40 -51 -83 0 c-154 0 -328
-42 -424 -103 -28 -18 -44 -22 -51 -15 -5 5 -36 19 -69 30 -47 16 -103 21
-293 29 -254 9 -370 22 -425 45 -19 8 -35 16 -35 18 0 2 18 15 39 29 63 42
166 143 220 215 235 318 286 743 122 1013 -134 220 -467 414 -688 400 -31 -2
-56 -30 -49 -55 5 -21 3 -22 -59 -18 -122 8 -321 -68 -515 -196 -49 -32 -131
-101 -192 -163 -101 -102 -109 -113 -167 -234 -87 -180 -103 -232 -109 -352
-5 -113 7 -198 41 -278 34 -82 105 -186 173 -252 54 -53 61 -63 42 -63 -43 0
-182 -40 -251 -72 -62 -29 -127 -84 -139 -119 -5 -12 -9 -12 -29 0 -71 42
-266 107 -399 132 -36 6 -67 13 -69 15 -2 2 28 37 67 78 127 134 188 252 212
411 37 248 -71 537 -279 746 -91 91 -179 152 -281 194 -108 46 -172 59 -282
60 l-97 0 29 23 c17 13 30 28 30 33 0 5 -27 9 -61 9 -119 0 -299 -99 -444
-245 -269 -269 -389 -639 -309 -955 33 -133 145 -329 222 -391 l27 -22 -50 5
c-27 3 -71 14 -96 26 -63 29 -212 54 -274 47 -133 -16 -229 -62 -331 -157
-124 -117 -198 -230 -384 -588 -143 -275 -185 -348 -275 -470 -300 -411 -438
-814 -381 -1112 26 -134 82 -249 170 -345 19 -22 56 -81 81 -131 78 -156 166
-226 285 -227 54 0 77 6 131 33 207 101 404 438 415 709 3 78 8 101 33 150 22
45 135 203 144 203 1 0 2 -183 3 -407 0 -225 2 -680 4 -1013 3 -630 -2 -773
-40 -1027 -55 -368 -167 -719 -341 -1063 -82 -164 -183 -332 -232 -389 -73
-85 -126 -257 -112 -366 23 -178 104 -334 246 -471 88 -84 144 -123 242 -169
111 -53 185 -68 302 -63 90 4 109 8 175 40 119 58 144 85 180 203 59 195 82
316 180 925 17 107 42 240 55 295 13 55 36 172 50 260 29 173 51 239 84 250
39 12 124 -38 217 -127 109 -104 223 -237 472 -546 204 -254 218 -267 323
-301 l37 -12 -20 -62 c-70 -222 -63 -441 20 -606 44 -88 238 -338 302 -388 77
-61 148 -86 230 -81 101 6 167 42 269 146 169 172 285 410 376 771 176 701
537 1621 635 1621 28 0 65 -54 189 -278 57 -103 141 -244 187 -314 86 -130
195 -258 220 -258 18 0 19 9 -20 -133 -19 -67 -53 -195 -75 -284 -48 -190 -57
-216 -166 -468 -101 -232 -131 -320 -145 -424 -35 -258 112 -463 390 -541 257
-71 507 1 578 168 11 26 94 346 185 712 279 1124 511 1973 579 2117 33 71 45
57 76 -87 12 -52 41 -174 66 -270 24 -96 76 -314 116 -485 120 -522 162 -679
299 -1120 35 -110 81 -258 103 -329 52 -169 101 -268 163 -333 106 -109 191
-91 394 86 130 113 329 384 432 586 43 86 44 90 44 185 0 96 -1 98 -47 191
-27 55 -98 162 -169 257 l-121 163 73 77 c41 42 116 140 168 217 223 331 357
463 491 484 45 7 55 6 72 -11 85 -85 291 -508 482 -991 152 -382 268 -751 317
-1007 44 -233 80 -314 167 -375 41 -28 49 -30 140 -30 88 0 103 3 164 32 157
74 301 203 406 362 121 184 153 322 112 481 -44 170 -139 394 -256 601 l-60
105 59 65 c75 81 177 217 252 337 66 105 79 111 148 63 133 -91 378 -434 535
-746 138 -276 200 -490 201 -685 0 -176 36 -274 121 -333 43 -31 49 -32 145
-32 95 0 104 2 178 37 201 96 367 270 448 473 21 54 24 74 23 205 -1 255 -55
514 -154 740 -75 171 -178 322 -346 507 -157 173 -243 331 -290 533 -37 160
-35 412 5 631 18 96 19 127 11 340 -5 129 -12 266 -15 306 -10 123 -6 525 6
588 21 116 72 173 110 126 19 -23 34 -86 74 -311 67 -379 177 -530 386 -530
86 0 146 25 210 90 89 88 142 206 181 404 32 158 32 464 0 647 -55 320 -203
726 -345 942 -162 246 -349 383 -627 457 l-45 12 77 27 c105 38 180 85 248
158 252 268 219 775 -62 966 -82 55 -166 79 -277 78 -51 0 -96 -2 -99 -5 -2
-3 18 -36 45 -73 281 -382 350 -723 190 -938 -54 -73 -183 -170 -256 -193 -70
-21 -307 -23 -486 -3 -154 17 -238 54 -336 151 -118 116 -173 258 -172 445 1
172 57 318 159 421 129 128 312 150 499 59 l67 -32 56 23 c32 13 65 24 75 24
29 0 31 28 3 70 -70 105 -246 136 -464 80 -292 -74 -560 -273 -667 -494 -48
-100 -70 -201 -60 -276 15 -111 63 -229 131 -322 l35 -47 -44 -19 c-25 -11
-63 -36 -85 -56 l-40 -37 -134 137 c-141 145 -263 250 -304 260 -13 3 -24 8
-24 10 0 2 25 30 55 61 108 113 200 269 240 405 9 31 22 103 30 160 7 56 21
123 30 148 43 113 -18 250 -158 356 -131 99 -352 181 -420 155 -61 -23 -45
-65 72 -195 92 -103 141 -192 172 -316 18 -70 20 -103 16 -204 -6 -146 -22
-211 -84 -336 -81 -162 -222 -285 -376 -326 -71 -19 -211 -18 -278 2 -284 84
-454 344 -453 699 0 264 92 499 257 657 l59 58 122 0 c66 0 136 -4 154 -9 41
-12 151 15 215 52 65 39 71 69 19 103 -44 29 -245 32 -352 5 -328 -83 -625
-384 -736 -747 -25 -81 -28 -104 -28 -249 -1 -150 1 -165 27 -240 16 -44 39
-99 53 -122 13 -23 24 -44 24 -46 0 -2 -23 -7 -50 -11 -73 -10 -213 -62 -286
-106 l-63 -38 -40 46 c-89 107 -226 154 -441 154 -74 0 -154 -4 -177 -10 -25
-5 -43 -6 -43 -1 0 5 4 9 10 9 5 0 53 30 107 66 397 267 613 725 518 1099 -24
95 -107 251 -177 334 -108 128 -289 262 -428 316 -60 24 -194 56 -222 54 -7
-1 -55 -27 -107 -60z m-2355 -324 c27 -25 76 -60 109 -77 35 -19 94 -66 141
-113 128 -127 190 -271 201 -470 15 -285 -116 -583 -321 -729 -188 -134 -425
-148 -641 -38 -141 72 -262 231 -311 407 -22 80 -30 296 -14 392 36 222 173
454 328 551 69 43 219 72 285 54 31 -9 41 -6 98 28 35 21 67 39 70 39 4 1 29
-19 55 -44z m-2404 -154 c100 -26 198 -76 289 -149 369 -294 463 -826 197
-1117 -110 -121 -245 -165 -407 -133 -269 53 -463 260 -553 589 -31 113 -33
375 -4 484 41 155 146 329 203 338 77 11 204 6 275 -12z m1924 -1448 c109 -27
344 -25 455 5 l86 23 52 -35 c90 -61 212 -87 556 -121 161 -16 286 -33 293
-40 2 -2 -44 -150 -103 -330 l-106 -326 -36 32 c-48 42 -92 59 -151 59 -235 0
-426 -416 -304 -662 29 -60 91 -129 137 -155 17 -10 13 -18 -44 -97 -34 -47
-121 -147 -192 -222 -157 -166 -216 -242 -273 -356 -78 -154 -86 -286 -25
-415 26 -55 56 -92 158 -194 181 -182 329 -268 438 -256 l41 4 7 -71 c35 -387
226 -792 425 -900 35 -19 73 -30 119 -35 l68 -6 -43 -170 c-35 -144 -162 -595
-168 -602 -2 -2 -32 41 -69 95 -36 53 -116 160 -178 237 -62 77 -144 183 -183
235 -127 171 -203 226 -300 218 -98 -8 -178 -88 -274 -276 -62 -120 -94 -199
-188 -472 -41 -118 -95 -264 -119 -325 -25 -60 -92 -258 -149 -440 -200 -629
-316 -934 -398 -1046 -47 -64 -128 -59 -240 13 -203 131 -305 365 -257 590 15
67 105 320 299 838 148 395 267 722 337 925 77 226 95 462 67 895 -24 379 -25
911 -1 1179 41 468 0 675 -148 742 -43 20 -129 25 -169 9 -55 -20 -218 -246
-325 -450 -76 -145 -127 -260 -258 -580 -124 -302 -134 -320 -174 -320 -96 0
-217 139 -262 301 -25 88 -30 154 -17 231 16 90 34 134 116 269 94 156 230
442 415 869 274 634 389 849 535 995 71 71 125 105 204 129 30 9 79 29 109 45
l54 28 57 -23 c31 -13 88 -31 126 -41z m2434 -59 c123 -26 267 -14 417 36 48
16 59 17 65 5 11 -19 60 -33 143 -40 333 -30 454 -64 558 -155 65 -58 84 -100
118 -264 40 -195 88 -336 174 -512 146 -299 345 -553 609 -774 118 -99 198
-196 252 -305 91 -187 76 -340 -49 -466 -111 -113 -208 -116 -316 -8 -24 24
-99 128 -166 231 -68 102 -199 296 -292 430 -93 133 -200 293 -238 353 -107
173 -151 230 -201 264 -83 54 -158 39 -236 -48 -53 -59 -99 -160 -122 -271
-16 -76 -22 -207 -46 -1110 -6 -206 -15 -433 -21 -505 -14 -164 -6 -445 16
-545 9 -41 73 -225 141 -408 272 -725 443 -1082 704 -1467 98 -146 120 -198
120 -286 0 -158 -96 -293 -384 -538 -125 -106 -115 -107 -167 7 -136 299 -474
1530 -625 2277 -41 201 -57 255 -91 296 -70 83 -165 77 -258 -16 -60 -59 -101
-145 -136 -283 -69 -270 -109 -404 -211 -707 -60 -176 -138 -410 -174 -520
-73 -224 -119 -359 -224 -650 -95 -263 -137 -429 -150 -597 -12 -157 -21 -189
-61 -222 -46 -39 -102 -50 -181 -36 -165 29 -318 154 -318 259 0 85 324 1239
592 2111 55 179 110 372 124 430 52 233 73 533 74 1050 0 376 10 510 61 860
72 484 63 767 -27 862 -37 37 -67 42 -120 19 -63 -28 -112 -70 -176 -148 -133
-163 -211 -306 -293 -538 -114 -321 -333 -877 -354 -898 -13 -13 -81 25 -155
88 -138 117 -268 316 -284 433 -17 120 7 160 301 503 235 276 285 344 446 613
290 485 350 630 370 898 13 166 38 225 115 265 51 27 87 33 245 44 92 6 174
17 205 27 50 17 52 17 106 -6 30 -13 84 -30 120 -38z m-4645 5 c148 -52 358
-53 541 -5 l96 26 29 -20 c15 -12 54 -30 86 -41 105 -36 497 -98 543 -86 25 7
25 5 -4 -42 -81 -127 -196 -390 -335 -764 l-11 -27 -32 20 c-39 24 -107 26
-147 5 -131 -67 -238 -388 -210 -632 5 -45 13 -93 19 -108 15 -39 15 -38 -45
-107 -68 -77 -108 -156 -136 -268 -19 -72 -21 -103 -16 -220 6 -142 22 -221
70 -338 46 -112 132 -225 214 -283 l23 -16 -34 -64 c-70 -131 -110 -309 -110
-479 0 -118 2 -129 33 -205 143 -349 574 -917 818 -1078 35 -23 63 -47 63 -55
0 -26 -74 -209 -166 -410 -53 -114 -102 -224 -111 -245 l-15 -37 -49 69 c-26
38 -74 91 -106 117 -119 100 -204 195 -363 409 -184 248 -331 405 -419 450
-30 15 -78 29 -107 32 -47 5 -63 2 -118 -26 -62 -30 -104 -71 -164 -157 -57
-82 -116 -369 -187 -899 -64 -476 -97 -626 -171 -781 -36 -77 -109 -166 -155
-189 -86 -45 -210 29 -319 190 -18 28 -53 72 -77 99 -24 26 -60 82 -80 124
-38 76 -38 76 -38 202 1 116 3 131 33 209 45 119 95 206 267 466 207 312 226
352 284 590 119 491 142 981 100 2128 -10 282 -10 375 2 565 28 466 9 625 -81
662 -17 7 -44 9 -62 6 -48 -9 -133 -61 -162 -98 -100 -133 -336 -592 -430
-839 -30 -80 -74 -209 -97 -287 l-43 -141 -37 68 c-21 38 -92 151 -160 251
-67 100 -137 212 -156 249 -30 59 -33 74 -33 151 0 161 39 317 124 494 67 141
143 264 342 551 213 307 245 358 320 510 45 92 67 149 74 195 13 81 34 111 91
129 39 13 62 12 248 -14 231 -31 308 -30 400 9 31 13 63 21 71 18 8 -3 51 -18
95 -33z m7959 -309 c49 -42 103 -97 120 -123 17 -26 62 -84 99 -130 286 -346
502 -855 572 -1352 31 -216 12 -319 -65 -357 -110 -55 -282 17 -465 197 -113
110 -207 232 -309 400 -67 111 -132 185 -161 185 -28 0 -64 -51 -86 -119 -56
-182 -68 -409 -71 -1386 -3 -792 -2 -825 38 -1065 46 -273 132 -537 242 -739
20 -36 108 -183 196 -326 250 -405 343 -606 381 -825 26 -147 17 -267 -31
-413 -23 -69 -31 -81 -70 -108 -25 -17 -65 -40 -90 -51 -42 -18 -52 -19 -109
-8 l-62 12 -63 216 c-174 606 -355 1085 -568 1499 -47 92 -119 235 -160 317
-85 169 -151 248 -243 291 -71 33 -177 34 -269 4 -153 -52 -377 -252 -520
-465 -67 -101 -180 -313 -180 -341 0 -6 -4 -14 -9 -17 -4 -3 -32 64 -61 149
-28 86 -74 210 -101 277 -27 67 -49 127 -49 133 0 6 18 29 41 50 82 80 236
300 302 432 29 57 39 98 65 258 63 387 92 676 92 935 l0 165 40 -72 c84 -156
164 -259 221 -289 43 -22 93 -18 127 11 17 14 55 63 85 108 31 45 115 150 187
232 218 247 274 331 306 457 20 78 12 145 -26 227 -66 139 -150 236 -425 485
-390 356 -440 433 -624 966 -27 80 -63 177 -80 215 l-30 70 37 2 c139 9 276
45 385 99 69 34 69 34 95 15 113 -79 259 -122 422 -123 173 -2 302 29 465 112
l89 45 115 -90 c63 -49 155 -124 205 -165z m755 -134 c184 -73 411 -90 621
-46 l105 21 15 -23 c33 -51 85 -84 306 -193 297 -147 407 -224 500 -348 58
-78 75 -129 129 -383 133 -630 156 -776 156 -961 1 -201 -34 -293 -125 -334
-68 -31 -157 -22 -183 17 -8 13 -39 142 -68 286 -63 311 -100 433 -158 520
-51 76 -92 102 -157 100 -95 -2 -180 -65 -225 -167 -48 -109 -50 -129 -50
-670 -1 -518 -4 -574 -42 -725 -9 -36 -30 -99 -48 -140 -58 -137 -69 -192 -69
-340 0 -109 4 -150 22 -215 64 -230 173 -423 445 -790 233 -313 320 -539 334
-860 14 -329 -77 -595 -266 -780 -73 -71 -73 -69 -126 292 -61 416 -108 619
-172 747 -87 172 -301 474 -423 597 -150 151 -258 212 -380 213 -162 1 -246
-75 -412 -376 l-65 -118 -121 208 c-134 231 -213 386 -266 517 -20 49 -36 90
-36 92 0 2 8 3 18 3 30 1 95 36 149 81 113 94 181 216 238 424 68 246 114 477
151 755 17 128 25 445 12 490 -7 25 -7 25 55 22 34 -1 87 4 117 11 50 11 60
19 117 87 35 41 83 116 108 165 61 121 78 207 72 355 -8 177 -62 349 -189 605
-33 66 -73 158 -90 205 -39 111 -129 282 -219 417 -39 60 -78 115 -86 125 -13
15 -9 18 42 33 67 19 126 54 152 89 10 14 20 26 22 26 2 0 42 -15 90 -34z
m-5409 -565 c31 -63 35 -44 -43 -211 -55 -117 -59 -117 -72 1 -8 75 8 185 36
248 16 38 21 42 35 30 9 -7 28 -38 44 -68z m687 -768 c-11 -481 -42 -1046 -87
-1588 -18 -212 -47 -465 -54 -472 -9 -9 -91 78 -126 133 -62 98 -93 186 -159
448 -64 252 -98 341 -150 393 l-32 32 36 70 c53 106 88 199 190 501 146 432
222 611 310 723 79 100 79 101 72 -240z m-2322 53 c26 -39 54 -200 61 -341 8
-154 -7 -301 -42 -423 l-25 -85 3 -691 c2 -529 0 -710 -10 -771 -28 -172 -55
-293 -86 -389 l-33 -101 -135 135 c-288 288 -454 577 -524 910 -24 116 -23
345 3 449 l18 74 50 17 c78 27 127 54 183 105 82 74 186 300 367 800 90 246
128 335 145 335 5 0 17 -11 25 -24z m4108 -77 c78 -52 192 -186 361 -429 70
-99 87 -130 82 -150 -3 -14 -12 -54 -20 -90 -22 -93 -36 -253 -36 -415 0 -232
-19 -572 -40 -713 -37 -257 -100 -406 -233 -550 -43 -48 -86 -97 -94 -110 -15
-22 -16 -22 -38 27 -45 96 -143 348 -173 442 -52 162 -73 281 -79 450 -7 182
4 316 52 649 45 308 54 409 61 625 9 288 41 341 157 264z m2295 -365 c48 -32
136 -106 212 -180 l130 -126 -20 -26 c-43 -54 -84 -239 -135 -602 -33 -233
-76 -479 -105 -596 -47 -192 -64 -232 -124 -294 -30 -30 -69 -76 -89 -102
l-35 -47 -6 27 c-3 15 -11 110 -17 212 -5 102 -24 381 -41 620 -35 491 -43
895 -20 1011 24 118 73 176 137 163 17 -4 67 -31 113 -60z"/>
</g>
</svg>
